<?xml version="1.0" encoding="UTF-8" standalone="no"?>
<!-- Generator: visioncortex VTracer 0.6.4 -->

<svg
   version="1.1"
   width="545.65472"
   height="131.40269"
   id="svg32"
   sodipodi:docname="synapto-text-100.svg"
   inkscape:version="1.4.4 (dcaf3e7d9e, 2026-05-05)"
   viewBox="0 0 545.65473 131.4027"
   xmlns:inkscape="http://www.inkscape.org/namespaces/inkscape"
   xmlns:sodipodi="http://sodipodi.sourceforge.net/DTD/sodipodi-0.dtd"
   xmlns="http://www.w3.org/2000/svg"
   xmlns:svg="http://www.w3.org/2000/svg">
  <defs
     id="defs32">
    <linearGradient
       id="swatch1"
       inkscape:swatch="solid">
      <stop
         style="stop-color:#000000;stop-opacity:1;"
         offset="0"
         id="stop1" />
    </linearGradient>
  </defs>
  <sodipodi:namedview
     id="namedview32"
     pagecolor="#ffffff"
     bordercolor="#999999"
     borderopacity="1"
     inkscape:showpageshadow="2"
     inkscape:pageopacity="0"
     inkscape:pagecheckerboard="0"
     inkscape:deskcolor="#d1d1d1"
     inkscape:zoom="0.43378105"
     inkscape:cx="1137.6707"
     inkscape:cy="-473.7413"
     inkscape:window-width="1920"
     inkscape:window-height="1145"
     inkscape:window-x="0"
     inkscape:window-y="0"
     inkscape:window-maximized="0"
     inkscape:current-layer="svg32">
    <inkscape:page
       x="0"
       y="0"
       width="545.65472"
       height="131.40269"
       id="page2"
       margin="0"
       bleed="0" />
  </sodipodi:namedview>
  <path
     d="m 95.722821,61.62159 c 0.535924,0.1394 1.071848,0.2819 1.607772,0.4275 0.297391,0.0774 0.594783,0.15799 0.904565,0.23853 2.280002,0.67223 2.280002,0.67223 2.902662,1.47766 0.12391,0.23853 0.24783,0.47707 0.37174,0.72489 0.1394,0.26951 0.2788,0.53593 0.4244,0.81163 0.1425,0.2881 0.2819,0.5731 0.4306,0.87049 0.22304,0.44299 0.22304,0.44299 0.45228,0.89527 3.64924,7.31397 5.90446,15.47364 6.22663,23.67359 0.009,0.21375 0.0155,0.4244 0.0248,0.64435 0.285,8.39201 -1.31968,16.55168 -4.64984,24.26217 -0.37174,0.75587 -0.37174,0.75587 -0.33147,1.425 0.61337,0.51114 1.22674,1.02228 1.8587,1.54891 0,2.76017 0,5.52033 0,8.36413 -1.25152,1.0006 -2.45968,1.87109 -3.81343,2.7106 -0.19516,0.12701 -0.38722,0.25402 -0.58858,0.38723 -1.38473,0.855 -2.630058,1.2825 -4.271906,0.92935 -0.972717,-0.39652 -1.840108,-0.91386 -2.729184,-1.47147 -0.232337,-0.1363 -0.464674,-0.27571 -0.703207,-0.41511 -1.149293,-0.70011 -2.072445,-1.26391 -2.76326,-2.45038 -0.105326,-0.8519 -0.105326,-0.8519 -0.08984,-1.81533 0.0031,-0.34385 0.0062,-0.69081 0.0093,-1.04706 0.0062,-0.35935 0.01549,-0.7187 0.02169,-1.08734 0.0062,-0.54521 0.0062,-0.54521 0.01239,-1.10282 0.01239,-0.89837 0.02788,-1.79364 0.04647,-2.69201 1.465271,-1.34756 2.961521,-2.39772 4.705597,-3.34875 0.216848,-0.12392 0.430598,-0.24473 0.653641,-0.37174 1.003696,-0.55451 1.877283,-0.99131 3.004892,-1.23604 6.046957,-13.10999 5.136197,-26.76831 0.929347,-40.27173 -0.0279,0.20136 -0.0558,0.40581 -0.0836,0.61337 -1.886577,13.40119 -7.28299,25.51059 -16.334837,35.63119 -0.24163,0.27261 -0.24163,0.27261 -0.486359,0.54832 -5.188858,5.8394 -5.188858,5.8394 -8.187554,7.19625 0.102229,0.20445 0.204457,0.40891 0.309783,0.61956 0.02788,0.65364 0.03408,1.30419 0.03098,1.95783 -0.0031,0.39032 -0.0031,0.77755 -0.0031,1.18027 -0.0031,0.61337 -0.0031,0.61337 -0.0093,1.23603 0,0.41511 -0.0031,0.83022 -0.0031,1.24533 -0.0031,1.01918 -0.0093,2.03527 -0.01549,3.05445 -1.511739,1.16788 -3.029674,2.25832 -4.683913,3.21555 -0.182772,0.10842 -0.362446,0.21684 -0.548315,0.33146 -1.214348,0.70321 -2.050761,1.03468 -3.441685,0.78995 -1.047065,-0.47397 -2.019782,-1.05016 -3.001793,-1.64495 -0.263315,-0.15489 -0.529728,-0.30978 -0.802337,-0.47087 -1.146196,-0.68152 -2.056956,-1.26701 -3.011087,-2.22114 0,-2.86239 0,-5.72478 0,-8.67391 1.483859,-1.23913 2.853098,-2.23353 4.491848,-3.21554 0.226141,-0.1425 0.45538,-0.285 0.687717,-0.4337 1.096631,-0.65674 1.697609,-1.00679 2.998696,-0.95413 0.805434,0.26641 0.805434,0.26641 1.443587,0.61337 0.858097,0.39033 1.251521,0.24473 2.149891,-0.0372 0.684619,-0.50495 1.304184,-1.0037 1.936141,-1.5675 0.176576,-0.15489 0.353152,-0.30979 0.535924,-0.46777 0.353152,-0.30979 0.709402,-0.62267 1.062554,-0.93555 0.4275,-0.38103 0.864294,-0.75277 1.297989,-1.12761 1.530326,-1.31967 2.868587,-2.7075 4.151087,-4.2657 0.133207,-0.15489 0.263315,-0.31288 0.39962,-0.47397 3.80413,-4.49185 6.685108,-9.3988 9.20364,-14.70538 0.1425,-0.285 0.285,-0.5669 0.430598,-0.8581 4.315272,-8.87837 4.795435,-18.58386 4.835706,-28.26146 z"
     fill="#3672a4"
     id="path3"
     style="opacity:1;stroke-width:0.309783" />
  <path
     d="m 69.391301,0.28463006 c 1.028478,0.51734 1.028478,0.51734 2.032174,1.16169004 0.176576,0.11152 0.350054,0.22304 0.529728,0.33766 1.186467,0.76516 2.283098,1.57679 3.323967,2.52783 0,1.02228 0,2.04456 0,3.09782 0.297392,-0.0774 0.594783,-0.15799 0.89837,-0.23853 5.139293,-1.33826 10.232119,-2.08484 15.520108,-2.54951 0.164185,-0.22924 0.325271,-0.45848 0.492554,-0.69392 0.839511,-0.96342 1.663533,-1.50244 2.760163,-2.15298 0.346957,-0.20756 0.697011,-0.41821 1.056359,-0.63196 0.473967,-0.27261004 0.473967,-0.27261004 0.957228,-0.54832004 0.207554,-0.1332 0.415109,-0.26641 0.628859,-0.40271 0.947934,-0.33767 1.502445,-0.17968 2.468969,0.0929 0.93554,0.45848 1.82152,0.98511004 2.7106,1.53033004 0.35625,0.21065 0.35625,0.21065 0.71869,0.4275 1.74098,1.04396 1.74098,1.04396 2.45658,1.75956 0.0713,0.75277 0.0713,0.75277 0.0619,1.68832 -0.003,0.49875 -0.003,0.49875 -0.006,1.00989 -0.009,0.52353 -0.009,0.52353 -0.0186,1.05636 0,0.35315 -0.003,0.7063 -0.006,1.06875 -0.0217,2.6548299 -0.0217,2.6548299 -1.09354,3.7204899 -0.8488,0.76826 -1.79674,1.35375 -2.77255,1.95163 -0.29429,0.19206 -0.29429,0.19206 -0.59478,0.38723 -1.02848,0.63195 -1.617069,0.88907 -2.850004,0.89527 -1.294891,-0.37794 -2.326467,-0.92006 -3.466467,-1.63256 -0.201359,-0.11771 -0.402717,-0.23853 -0.610272,-0.35935 -1.208152,-0.73728 -2.112717,-1.44978 -2.893369,-2.66103 0,-0.30668 0,-0.61337 0,-0.92935 -5.634946,0.37484 -10.950815,1.01919 -16.418478,2.47827 0,0.20445 0,0.40891 0,0.61956 -0.923152,0.61957 -1.855597,1.22984 -2.788043,1.84011 -0.260217,0.17348 -0.520435,0.35005 -0.786848,0.52973 -2.025978,1.31038 -3.429293,1.82771 -5.873478,1.52103 -0.38413,-0.0867 -0.38413,-0.0867 -0.774456,-0.17348 -2.478261,1.8587 -4.87288,3.75457 -7.125,5.88587 -0.433696,0.40272 -0.433696,0.40272 -0.876685,0.81473 -9.962608,9.46695 -16.446358,24.13826 -16.864564,37.88951 -0.0062,0.31598 -0.0062,0.31598 -0.01549,0.63815 -0.0062,0.22304 -0.01239,0.44609 -0.01859,0.67842 -0.01859,0.70321 -0.03717,1.40642 -0.05576,2.10962 -0.01549,0.48017 -0.02788,0.96343 -0.04027,1.44359 -0.03408,1.17098 -0.06505,2.34196 -0.09603,3.51293 -1.620163,-0.50804 -3.144294,-1.05016 -4.646739,-1.85869 -0.229239,-8.15348 0.514239,-15.76484 3.097826,-23.54348 0.07125,-0.21994 0.145597,-0.43989 0.219945,-0.66293 4.17587,-12.33245 11.957608,-22.29506 22.084401,-30.31533 -0.102228,-0.30668 -0.204456,-0.61337 -0.309782,-0.92934 -0.09603,-1.32897 -0.09913,-2.65794 -0.117718,-3.9899999 -0.01549,-0.54832 -0.01549,-0.54832 -0.03408,-1.10903 -0.02788,-2.68891 -0.02788,-2.68891 0.771359,-3.87847 0.306685,-0.20756 0.61337,-0.41202 0.929348,-0.62577 0.192065,-0.1332 0.387228,-0.26951 0.585489,-0.40581 0.656739,-0.44609 1.328967,-0.8519 2.010489,-1.26082 0.223043,-0.1425 0.449185,-0.285 0.684619,-0.43369004 1.49625,-0.89527 2.407011,-1.21745 4.154185,-0.68772 z"
     fill="#3571a3"
     id="path4"
     style="opacity:1;stroke-width:0.309783" />
  <path
     d="m 69.081518,41.17593 c 2.069348,0.89837 4.005489,2.05696 5.923044,3.23414 1.759565,1.06875 3.522228,2.1251 5.306575,3.15048 0.325272,0.18897 0.650544,0.37794 0.985109,0.57 0.628859,0.35935 1.25462,0.7187 1.883478,1.07805 5.950924,3.42619 5.950924,3.42619 6.657228,5.28799 0.08054,0.98201 0.08054,0.98201 0.08364,2.15918 0.0031,0.21375 0.0031,0.4275 0.0062,0.65054 0.0031,0.70941 0.0031,1.41571 0.0031,2.12511 0,0.49256 0.0031,0.98821 0.0031,1.48076 0.0031,1.03468 0.0031,2.06935 0.0031,3.10403 -0.0031,1.32587 0.0031,2.64864 0.0093,3.97141 0.0031,1.01918 0.0062,2.04147 0.0031,3.06065 0,0.48636 0.0031,0.97582 0.0062,1.46217 0.0031,0.68462 0,1.36924 -0.0031,2.05077 0,0.39032 0,0.77755 0,1.17717 -0.173478,1.59538 -0.703207,2.58978 -1.846304,3.7019 -1.260816,0.97272 -2.642446,1.75337 -4.017881,2.54951 -0.291195,0.17038 -0.579293,0.33766 -0.879782,0.51424 -0.638152,0.37174 -1.276305,0.74348 -1.917555,1.11522 -1.759565,1.02538 -3.51913,2.06005 -5.275597,3.09163 -0.591685,0.34695 -1.186467,0.69391 -1.778152,1.04087 -0.188968,0.10842 -0.374837,0.21994 -0.566902,0.33147 -0.508044,0.29739 -1.019185,0.59478 -1.527229,0.89527 -0.566902,0.33146 -1.127608,0.68152 -1.675923,1.04706 -1.437392,0.76207 -2.905761,0.64435 -4.482555,0.40582 -1.260815,-0.48946 -2.351249,-1.16479 -3.485054,-1.89587 -0.647445,-0.39962 -1.294891,-0.79924 -1.945434,-1.19576 -0.32837,-0.20446 -0.656739,-0.41201 -0.9975,-0.62267 -1.63875,-1.01299 -3.308478,-1.96712 -4.975109,-2.92744 -7.930434,-4.57859 -7.930434,-4.57859 -8.732771,-6.9887 -0.03408,-0.69701 -0.04957,-1.39712 -0.05576,-2.09413 0,-0.21375 -0.0031,-0.4244 -0.0062,-0.64125 -0.0062,-0.70011 -0.0093,-1.40021 -0.01239,-2.10032 0,-0.24163 -0.0031,-0.48017 -0.0031,-0.72799 -0.0062,-1.26701 -0.01239,-2.53402 -0.01549,-3.80103 -0.0031,-1.30729 -0.01239,-2.61457 -0.02478,-3.92185 -0.0093,-1.0068 -0.0093,-2.01359 -0.01239,-3.02038 0,-0.48326 -0.0031,-0.96343 -0.0093,-1.44669 -0.0093,-0.67532 -0.0093,-1.35065 -0.0062,-2.02598 -0.0031,-0.38413 -0.0031,-0.76826 -0.0062,-1.16168 0.254022,-1.76266 1.260816,-2.95842 2.639348,-4.04266 1.431196,-0.98201 2.955326,-1.81223 4.463967,-2.66413 0.545218,-0.31288 1.093533,-0.62576 1.641848,-0.93555 0.532826,-0.30668 1.065652,-0.61027 1.598478,-0.91386 1.174076,-0.67532 2.338859,-1.36304 3.497446,-2.06315 0.350054,-0.20755 0.700108,-0.4182 1.059456,-0.63505 0.765163,-0.46468 1.514837,-0.94174 2.264511,-1.4281 4.005489,-2.57739 4.005489,-2.57739 6.220434,-2.0012 z m -4.501141,6.31028 c -0.179674,0.10842 -0.362445,0.21684 -0.551413,0.32837 -0.582391,0.35005 -1.164782,0.7094 -1.744076,1.06875 -0.402717,0.24163 -0.805434,0.48635 -1.208152,0.72798 -0.793043,0.47707 -1.582989,0.95723 -2.372934,1.44049 -0.920055,0.56071 -1.846305,1.10593 -2.77875,1.64185 -0.238533,0.13631 -0.477066,0.27571 -0.724892,0.41821 -0.421304,0.24163 -0.842608,0.48326 -1.26701,0.72489 -1.291794,0.74967 -2.258316,1.53652 -3.438587,2.51853 0,6.23593 0,12.47185 0,18.89674 1.387826,1.39712 1.387826,1.39712 2.930543,2.4287 0.263315,0.15489 0.529728,0.30978 0.802337,0.46777 0.281902,0.16418 0.563804,0.32527 0.855,0.49255 0.294293,0.17038 0.588587,0.34076 0.892174,0.51734 0.628859,0.36554 1.260815,0.73109 1.889674,1.09663 1.028478,0.59168 2.05076,1.18956 3.073043,1.79054 1.304185,0.76207 2.605272,1.52104 3.909456,2.2831 0.263316,0.15489 0.529729,0.30669 0.802337,0.46777 1.174076,0.67223 2.084837,0.92315 3.432391,0.67843 1.087337,-0.48326 2.072446,-1.10903 3.079239,-1.74098 0.600979,-0.37174 1.205055,-0.73728 1.806033,-1.10593 0.315978,-0.19206 0.628859,-0.38722 0.951032,-0.58549 1.970218,-1.19885 3.977609,-2.33576 5.978805,-3.48505 2.797336,-1.46837 2.797336,-1.46837 4.603369,-3.92494 0.08984,-0.85191 0.08984,-0.85191 0.07125,-1.79055 0,-0.35935 0,-0.71869 0,-1.09043 -0.0031,-0.38413 -0.0062,-0.77136 -0.0093,-1.17098 -0.0031,-0.39652 -0.0031,-0.79304 -0.0031,-1.20196 -0.0031,-1.05326 -0.0093,-2.10652 -0.01549,-3.15978 -0.0062,-1.07495 -0.0093,-2.15299 -0.01239,-3.22793 0.35625,-3.78865 0.35625,-3.78865 -0.709402,-7.04136 -0.780652,-0.74658 -1.455978,-1.25152 -2.385326,-1.78125 -0.294293,-0.16729 -0.585489,-0.33767 -0.889076,-0.51114 -0.309783,-0.17658 -0.622663,-0.35316 -0.944837,-0.53593 -0.66913,-0.38103 -1.335163,-0.76206 -2.001195,-1.1431 -0.343859,-0.19516 -0.68462,-0.39032 -1.037772,-0.59168 -1.043967,-0.60408 -2.075544,-1.22674 -3.104022,-1.8556 -0.328369,-0.19826 -0.659837,-0.39962 -1.000598,-0.60407 -0.631956,-0.38413 -1.263913,-0.77136 -1.892771,-1.16169 -0.433696,-0.26022 -0.433696,-0.26022 -0.876685,-0.52663 -0.250924,-0.15489 -0.501848,-0.30668 -0.762065,-0.46777 -2.053859,-0.79924 -3.528424,-0.39343 -5.346848,0.7156 z"
     id="path5"
     fill="#3470a2"
     style="opacity:1;stroke-width:0.309783" />
  <path
     d="m 89.400109,24.99342 c 0.250924,-0.003 0.504946,-0.006 0.762065,-0.009 7.15288,-0.0682 13.769836,0.30669 20.612936,2.58359 2.18706,0.77755 2.18706,0.77755 4.38652,0.32837 0.80543,-0.48946 1.57989,-1.01919 2.35435,-1.55511 1.0006,-0.65364 1.57679,-0.95723 2.79424,-0.9975 1.51174,0.46157 2.77565,1.17717 4.1263,1.9888 0.26022,0.1518 0.52044,0.30049 0.78995,0.45848 2.50304,1.47457 2.50304,1.47457 3.33326,2.54332 0.1394,0.9944 0.1394,0.9944 0.12081,2.15298 0,0.20446 -0.003,0.40892 -0.006,0.61957 -0.006,0.65054 -0.0217,1.30109 -0.0372,1.95163 -0.006,0.44299 -0.0124,0.88288 -0.0155,1.32587 -0.0155,1.08114 -0.0372,2.16228 -0.0619,3.24342 -1.51794,1.35995 -3.04826,2.48446 -4.80163,3.52223 -0.33457,0.21065 -0.33457,0.21065 -0.67533,0.4244 -1.4219,0.84261 -2.44109,1.32587 -4.1263,1.00989 -1.17718,-0.57 -2.25522,-1.26081 -3.34875,-1.97641 -0.29739,-0.18587 -0.59169,-0.37174 -0.89528,-0.5638 -2.14059,-1.36614 -2.14059,-1.36614 -2.88097,-2.10652 0,-2.24903 0,-4.49805 0,-6.81522 -1.37854,-0.30669 -1.37854,-0.30669 -2.78805,-0.61957 -0.65364,-0.19516 -1.30418,-0.39652 -1.95472,-0.60097 -4.67153,-1.31968 -9.240819,-1.65424 -14.076526,-1.66354 -0.226141,-0.003 -0.45538,-0.003 -0.690815,-0.006 -14.528804,-0.0372 -26.898423,5.96641 -39.506574,12.55239 -0.771359,0.39962 -1.542717,0.79614 -2.320272,1.18027 0.161087,-2.31098 0.78375,-5.04636 2.39462,-6.77185 0.724891,-0.49875 1.465271,-0.88907 2.252119,-1.2825 0.350054,-0.19826 0.697011,-0.39652 1.056359,-0.59788 9.878967,-5.53581 21.706466,-10.20424 33.202498,-10.31886 z"
     fill="#3470a3"
     id="path6"
     style="opacity:1;stroke-width:0.309783" />
  <path
     d="m 16.72826,87.33354 c 1.164783,0.50495 2.239728,1.13071 3.330163,1.78125 0.291196,0.16728 0.585489,0.33457 0.885978,0.50495 2.518533,1.46837 2.518533,1.46837 3.218641,2.67032 0.105326,0.70941 0.105326,0.70941 0.08984,1.47767 -0.0031,0.41201 -0.0031,0.41201 -0.0093,0.83331 -0.0062,0.285 -0.01549,0.57 -0.02169,0.86429 -0.0062,0.4337 -0.0062,0.4337 -0.01239,0.87979 -0.01239,0.7125 -0.02788,1.42809 -0.04647,2.14059 1.031576,0.31908 2.063152,0.62577 3.097826,0.92935 0.340761,0.0991 0.681522,0.20136 1.034674,0.30359 5.222935,1.47456 10.352934,2.04147 15.771032,2.0012 0.278804,-0.003 0.554511,-0.003 0.842609,-0.006 12.394401,-0.0836 23.242988,-4.33076 33.865433,-10.48614 1.229837,-0.7125 2.465869,-1.41261 3.705,-2.11272 0.201358,-0.11462 0.402717,-0.22924 0.610271,-0.34696 0.799239,-0.45228 1.536522,-0.83331 2.410109,-1.12451 -0.845707,5.23533 -0.845707,5.23533 -2.490652,6.79663 -11.421684,7.96451 -25.504401,12.57408 -39.407444,12.50593 -0.250924,0 -0.501848,0 -0.762065,-0.003 -6.778043,-0.031 -13.491032,-0.91696 -19.816793,-3.53462 -0.929347,-0.35625 -1.325869,-0.2819 -2.267608,0.0341 -0.923152,0.51114 -1.815326,1.04706 -2.7075,1.61396 -1.23913,0.74658 -2.050761,1.13691 -3.488152,0.8643 -1.093533,-0.51734 -2.10962,-1.14 -3.135,-1.78125 -0.278804,-0.16729 -0.554511,-0.33457 -0.839511,-0.50495 -1.3010867,-0.79924 -2.4070105,-1.55511 -3.4602713,-2.67032 -0.046467,-1.41261 -0.07125,-2.82522 -0.096033,-4.24093 -0.012391,-0.39962 -0.027881,-0.79924 -0.040272,-1.21435 -0.0062,-0.38413 -0.00929,-0.77135 -0.015489,-1.17097 -0.0062,-0.35316 -0.015489,-0.70941 -0.024783,-1.07495 0.2323369,-1.27321 0.746576,-1.7038 1.725489,-2.52163 0.6505435,-0.44609 1.3165761,-0.87049 1.9950003,-1.2763 0.508043,-0.30979 0.508043,-0.30979 1.02538,-0.62267 0.331467,-0.19206 0.662935,-0.38413 1.006793,-0.57929 0.303587,-0.17658 0.607174,-0.35625 0.920055,-0.53902 1.189565,-0.49565 1.824619,-0.5762 3.107119,-0.39033 z"
     fill="#3471a4"
     id="path7"
     style="opacity:1;stroke-width:0.309783" />
  <path
     d="m 17.658289,25.9289 c 0.607174,0.32217 1.170979,0.67222 1.740979,1.05635 0.288097,0.17968 0.288097,0.17968 0.579293,0.36245 0.576196,0.36554 1.143098,0.74348 1.706902,1.12761 0.201359,0.1363 0.405815,0.27571 0.61337,0.41511 1.514837,1.05326 1.514837,1.05326 1.864891,1.75337 0.09913,1.36614 0.09913,2.73538 0.114619,4.10462 0.01859,0.57 0.01859,0.57 0.03717,1.15239 0.03098,3.14739 0.03098,3.14739 -0.81163,4.22853 -0.913859,0.75587 -1.806033,1.36614 -2.843804,1.93614 -0.331468,0.18587 -0.662935,0.36864 -1.003696,0.56071 -0.250924,0.1332 -0.501848,0.26951 -0.758967,0.40891 1.192663,11.09641 6.592173,22.05033 13.940216,30.35869 0.139403,0.15799 0.278805,0.31908 0.424403,0.48327 6.774945,7.62684 15.049238,12.80951 24.048422,17.48413 -0.920054,0.73418 -1.843206,1.2763 -2.90576,1.78125 -0.281903,0.1394 -0.566902,0.2788 -0.858098,0.4213 -1.521033,0.47397 -2.599076,0.0743 -3.968315,-0.62266 C 49.119806,92.69014 48.664425,92.43302 48.209045,92.17281 47.967414,92.0365 47.722686,91.8971 47.471762,91.7577 43.611871,89.53965 40.071056,86.99634 36.737795,84.05031 36.381545,83.73743 36.025295,83.42764 35.665948,83.11786 30.415133,78.57645 25.83035,73.5115 22.305024,67.50792 22.199698,67.33134 22.094372,67.15786 21.985948,66.97819 17.754318,59.92134 15.056112,52.11792 13.940894,43.96444 13.789101,43.87774 13.637307,43.79406 13.482416,43.70422 12.788503,43.3108 12.09459,42.91118 11.403775,42.51156 11.165242,42.37835 10.92671,42.24205 10.681981,42.10265 10.449644,41.96944 10.217307,41.83313 9.975677,41.69373 9.7650249,41.57292 9.5512749,41.4521 9.3344271,41.32509 8.6745901,40.86661 8.6745901,40.86661 7.1256772,39.3177 c 0,-2.96462 0,-5.92924 0,-8.9837 1.4652716,-1.22364 2.8190216,-2.22114 4.4329888,-3.19385 0.219946,-0.1425 0.439891,-0.28191 0.666033,-0.4275 1.771956,-1.06875 3.432391,-1.56441 5.433586,-0.78375 z"
     fill="#3470a1"
     id="path8"
     style="opacity:1;stroke-width:0.309783" />
  <path
     d="m 85.441686,38.34334 c 0.681521,0.34696 1.347554,0.7125 2.013586,1.09044 0.244729,0.1363 0.489457,0.27571 0.743479,0.41821 2.509239,1.43119 4.885271,3.02347 7.214836,4.73038 0.182772,0.1332 0.362446,0.26641 0.551413,0.40271 4.4206,3.26511 8.48495,7.01038 11.83989,11.36902 0.21685,0.25093 0.4306,0.50185 0.65364,0.75897 6.62315,7.67951 10.86408,17.30446 12.85908,27.16794 0.0774,0.38103 0.15799,0.75896 0.23853,1.14929 0.0682,0.33766 0.13321,0.67533 0.20136,1.02228 0.59168,1.75957 2.01049,2.45658 3.55011,3.35805 2.38842,1.40331 2.38842,1.40331 3.25271,2.47826 0.13941,0.93864 0.13941,0.93864 0.12082,2.01978 -0.003,0.38723 -0.009,0.77445 -0.0124,1.17407 -0.0155,0.60408 -0.0155,0.60408 -0.031,1.22055 -0.006,0.40891 -0.0124,0.81782 -0.0186,1.23913 -0.0434,3.05445 -0.0434,3.05445 -1.11521,4.1232 -0.88908,0.80544 -1.88348,1.4343 -2.89337,2.07245 -0.20756,0.1394 -0.41201,0.2788 -0.62576,0.4213 -1.50555,0.95413 -2.90576,1.56131 -4.71799,1.35995 -1.1462,-0.40272 -2.15299,-0.96962 -3.19386,-1.58609 -0.27261,-0.15179 -0.54522,-0.30358 -0.82712,-0.45848 -1.4281,-0.81472 -2.49995,-1.50244 -3.41381,-2.91195 -0.25092,-1.38473 -0.18586,-2.77565 -0.17347,-4.18207 -0.0124,-0.5669 -0.0124,-0.5669 -0.0248,-1.14619 0.006,-2.76017 0.006,-2.76017 0.87049,-3.9962 0.2881,-0.19516 0.5793,-0.38723 0.87669,-0.58858 0.29429,-0.20446 0.59168,-0.41202 0.89527,-0.62577 0.30049,-0.18277 0.59788,-0.36554 0.90456,-0.55451 0.30359,-0.18587 0.60408,-0.37483 0.91696,-0.5669 0.22614,-0.1394 0.45538,-0.2788 0.69082,-0.4213 0.096,-2.02908 -0.23854,-3.72359 -0.79305,-5.67212 -0.0867,-0.30049 -0.17038,-0.59788 -0.25712,-0.90767 -2.71059,-9.38331 -7.08472,-17.88065 -13.8194,-25.01804 -0.35625,-0.4182 -0.7125,-0.83641 -1.06565,-1.25771 -1.288696,-1.46528 -2.7075,-2.75397 -4.200652,-4.00859 -0.18587,-0.15489 -0.368642,-0.30978 -0.560707,-0.47087 -4.398913,-3.66473 -9.237717,-6.51783 -14.20663,-9.33375 -0.207554,-0.11462 -0.412011,-0.23234 -0.622663,-0.35005 -0.517337,-0.2943 -1.040869,-0.5793 -1.561304,-0.8674 -0.706304,-0.43989 -0.706304,-0.43989 -1.016087,-1.05945 0.740381,-0.37174 1.480761,-0.73729 2.227337,-1.10283 0.207554,-0.10532 0.415109,-0.21065 0.631956,-0.32217 1.517935,-0.73109 2.32337,-0.91076 3.897066,-0.16729 z"
     fill="#346fa1"
     id="path9"
     style="opacity:1;stroke-width:0.309783" />
  <path
     d="m 69.701084,52.63789 c 1.183369,0.55141 2.28,1.20506 3.389021,1.89587 0.4275,0.26022 0.4275,0.26022 0.867391,0.52353 4.801631,2.92125 4.801631,2.92125 6.276196,4.39582 0.07435,0.93244 0.108424,1.83701 0.114619,2.77255 0.0031,0.27881 0.0062,0.55451 0.0093,0.83951 0.0031,0.58549 0.0062,1.17408 0.0093,1.75957 0.0031,0.89527 0.01859,1.78744 0.03408,2.68272 0.0031,0.57 0.0031,1.14 0.0062,1.71 0.0062,0.26641 0.01239,0.52972 0.01859,0.80543 -0.0093,1.26701 -0.07435,2.15918 -0.870489,3.17527 -0.82712,0.77446 -1.582989,1.34136 -2.561902,1.90207 -0.319076,0.18277 -0.638152,0.36864 -0.966522,0.55761 -0.331467,0.18587 -0.659837,0.37173 -1.000598,0.5607 -0.328369,0.18897 -0.653641,0.37794 -0.991304,0.57 -0.923152,0.52973 -1.8525,1.04707 -2.784945,1.56131 -0.238533,0.1363 -0.477066,0.26951 -0.721794,0.40891 -1.263913,0.68462 -2.183967,1.08114 -3.615163,0.83022 -0.92625,-0.39343 -1.784347,-0.88288 -2.651739,-1.39403 -0.244728,-0.1394 -0.489456,-0.2819 -0.74038,-0.4244 -0.731087,-0.4213 -1.459076,-0.8488 -2.183967,-1.2794 -0.207555,-0.12081 -0.412011,-0.24163 -0.625761,-0.36554 -4.405109,-2.5712 -4.405109,-2.5712 -5.260109,-4.2812 -0.08984,-1.7069 -0.09603,-3.4138 -0.108424,-5.1238 -0.0062,-0.57 -0.01239,-1.1431 -0.02478,-1.7131 -0.01859,-0.82402 -0.02478,-1.64804 -0.02788,-2.47207 -0.0093,-0.25402 -0.01549,-0.50804 -0.02168,-0.77135 0.0031,-1.34136 0.05266,-1.84011 0.92625,-2.91816 1.155489,-0.90766 2.348152,-1.68212 3.608967,-2.43489 0.452282,-0.27261 0.901467,-0.55141 1.35375,-0.83021 0.842608,-0.52354 1.691413,-1.03778 2.540217,-1.54892 0.275706,-0.17038 0.548315,-0.34386 0.830217,-0.52043 1.812228,-1.06875 3.128804,-1.5737 5.17337,-0.87359 z"
     fill="#3170a6"
     id="path10"
     style="opacity:1;stroke-width:0.309783" />
  <path
     d="m 7.1249997,61.3118 c 0.8085325,0.36555 1.4993477,0.7218 2.2459238,1.18028 0.1889673,0.11152 0.3779347,0.22304 0.5730978,0.33456 0.9293477,0.55141 1.7069017,1.11212 2.4472827,1.89277 0.02478,0.89837 0.04337,1.79364 0.05886,2.69201 0.0062,0.25093 0.01549,0.50495 0.02168,0.76517 0.01859,1.47766 0.0031,2.50923 -1.009891,3.66782 -0.697011,0.50185 -1.347554,0.92315 -2.0910325,1.33516 C 9.1850509,73.2911 9.0022792,73.40262 8.8133118,73.51724 7.4688553,74.2793 6.4868445,74.54262 4.9565185,74.32267 4.0860294,73.94474 3.3115729,73.46457 2.5154317,72.94724 2.3078803,72.81713 2.0972282,72.68702 1.8834782,72.55381 0.39342389,71.61827 0.39342389,71.61827 0,71.22485 0,68.97582 0,66.7268 0,64.40963 4.9441302,61.11354 4.9441302,61.11354 7.1249997,61.3118 Z"
     fill="#3770a0"
     id="path11"
     style="opacity:1;stroke-width:0.309783" />
  <path
     d="m 15.179347,29.4042 c 1.161685,0.46467 2.100326,0.91076 3.156685,1.54891 0.266413,0.16108 0.532826,0.31907 0.805434,0.48326 0.68462,0.44609 0.68462,0.44609 1.304185,1.06565 0.04647,0.90147 0.05886,1.77196 0.03717,2.67033 0,0.25092 -0.0031,0.49875 -0.0062,0.75277 -0.0093,0.61647 -0.01859,1.22984 -0.03098,1.84321 -0.687717,0.4244 -1.378532,0.8426 -2.072445,1.25771 -0.291196,0.18277 -0.291196,0.18277 -0.585489,0.36555 -0.842609,0.49875 -1.480761,0.85809 -2.472066,0.8457 -1.59538,-0.63505 -3.007989,-1.58299 -4.47326,-2.46896 0,-1.84011 0,-3.68022 0,-5.57609 1.431195,-0.92006 2.862391,-1.84011 4.336956,-2.78804 z"
     id="path12"
     style="opacity:1;fill:#ffffff;fill-opacity:1;stroke-width:0.309783" />
  <path
     d="m 119.88586,91.36072 c 1.91446,0.63815 3.25582,1.4219 4.95653,2.47826 0,1.94233 0,3.88467 0,5.88587 -1.4312,0.81782 -2.8624,1.63565 -4.33696,2.47826 -2.04457,-0.68153 -3.23103,-1.53033 -4.95652,-2.78805 0,-1.84011 0,-3.68021 0,-5.57608 1.43119,-0.81783 2.86239,-1.63566 4.33695,-2.47826 z"
     id="path13"
     style="opacity:1;fill:#ffffff;fill-opacity:1;stroke-width:0.309783" />
  <path
     d="m 67.532605,117.69224 c 1.902066,0.63505 3.026576,1.34755 4.646739,2.47826 0,1.63565 0,3.2713 0,4.95652 -1.328967,0.81782 -2.657934,1.63565 -4.027173,2.47826 -1.694511,-0.67843 -3.091631,-1.52413 -4.646739,-2.47826 0,-1.63565 0,-3.27131 0,-4.95652 1.328967,-0.81783 2.657934,-1.63566 4.027173,-2.47826 z"
     id="path14"
     style="opacity:1;fill:#ffffff;fill-opacity:1;stroke-width:0.309783" />
  <path
     d="m 99.169153,3.9633001 c 1.189567,0.46467 2.053857,1.11212 3.060647,1.89587 0,1.32897 0,2.66103 0,4.02717 -0.92315,0.6133699 -1.8432,1.2298399 -2.788038,1.8586999 -1.747174,-0.34696 -2.568098,-0.89218 -4.027174,-1.8586999 0,-1.43119 0,-2.86239 0,-4.33695 2.472065,-1.53343 2.472065,-1.53343 3.754565,-1.58609 z"
     id="path15"
     style="opacity:1;fill:#ffffff;fill-opacity:1;stroke-width:0.309783" />
  <path
     d="m 6.2150133,65.04856 c 0.9293478,0.29739 1.654239,0.67532 2.4596738,1.22054 0,1.12451 0,2.24902 0,3.40761 C 7.5966437,70.33345 6.967785,70.60915 5.6914807,70.56578 4.6475134,70.29627 4.6475134,70.29627 3.408383,69.36693 c 0,-1.02229 0,-2.04457 0,-3.09783 1.582989,-1.24533 1.582989,-1.24533 2.8066303,-1.22054 z"
     id="path16"
     style="opacity:1;fill:#ffffff;fill-opacity:1;stroke-width:0.309783" />
  <path
     d="m 28.190216,68.12702 c 0.204457,0 0.408913,0 0.619565,0 0.148696,0.21375 0.300489,0.4275 0.455381,0.64745 1.397119,1.95782 2.865489,3.78554 4.501141,5.5482 -0.204457,0.20446 -0.408913,0.40892 -0.619565,0.61957 C 32.493096,74.143 31.842553,73.34066 31.192009,72.54142 30.916303,72.20376 30.916303,72.20376 30.631303,71.8568 30.36489,71.52843 30.36489,71.52843 30.092281,71.19077 29.844455,70.89028 29.844455,70.89028 29.593531,70.5805 29.358096,70.28621 29.358096,70.28621 29.119564,69.98572 28.946086,69.76887 28.772607,69.55202 28.592933,69.32898 28.190216,68.74659 28.190216,68.74659 28.190216,68.12702 Z"
     fill="#437398"
     id="path22"
     style="opacity:1;stroke-width:0.309783" />
  <path
     d="m 40.271737,39.62702 c 0.204457,0 0.408913,0 0.619565,0 -0.05576,0.16419 -0.111521,0.33147 -0.17038,0.50185 -0.600978,1.78435 -1.155489,3.57799 -1.688315,5.38402 -0.204457,-0.10223 -0.408913,-0.20446 -0.619565,-0.30978 0.492554,-1.92995 1.016087,-3.76696 1.858695,-5.57609 z"
     fill="#47759b"
     id="path25"
     style="opacity:1;stroke-width:0.309783" />
  <path
     d="m 39.652172,63.1705 c 0.102228,0 0.204457,0 0.309783,0 0,2.24902 0,4.49804 0,6.81522 -0.61337,-0.20446 -1.226739,-0.40892 -1.858696,-0.61957 0,-0.10223 0,-0.20446 0,-0.30978 0.511141,0 1.022283,0 1.548913,0 0,-1.94234 0,-3.88468 0,-5.88587 z"
     fill="#497598"
     id="path26"
     style="opacity:1;stroke-width:0.309783" />
  <path
     d="m 81.16304,105.61071 c 0,1.21125 -0.467772,1.58609 -1.239131,2.47827 -0.306685,-0.10223 -0.613369,-0.20446 -0.929348,-0.30979 0.715598,-0.7156 1.431196,-1.43119 2.168479,-2.16848 z"
     fill="#4d7ba0"
     id="path31"
     style="opacity:1;stroke-width:0.309783" />
  <path
     d="m 52.972824,42.41507 c -0.833316,0.69701 -1.44049,1.20195 -2.478261,1.54891 0,-0.40891 0,-0.81783 0,-1.23913 0.907663,-0.30359 1.536521,-0.33457 2.478261,-0.30978 z"
     fill="#4c7594"
     id="path32"
     style="opacity:1;stroke-width:0.309783" />
  <text
     xml:space="preserve"
     style="font-size:111.28px;writing-mode:lr-tb;direction:ltr;opacity:1;fill:#3470a3;fill-opacity:1;stroke-width:0.579585"
     x="148.60736"
     y="102.06724"
     id="text1"><tspan
       sodipodi:role="line"
       id="tspan1"
       x="148.60736"
       y="102.06724"
       style="font-style:normal;font-variant:normal;font-weight:normal;font-stretch:normal;font-size:111.28px;font-family:FreeSans;-inkscape-font-specification:FreeSans;fill:#3470a3;fill-opacity:1;stroke-width:0.579585">Synapto</tspan></text>
</svg>
