<?xml version="1.0" encoding="UTF-8" standalone="no"?>
<!-- Generator: visioncortex VTracer 0.6.4 -->

<svg
   version="1.1"
   width="415.41956"
   height="424.17712"
   id="svg32"
   sodipodi:docname="synapto.svg"
   inkscape:version="1.4.4 (dcaf3e7d9e, 2026-05-05)"
   xmlns:inkscape="http://www.inkscape.org/namespaces/inkscape"
   xmlns:sodipodi="http://sodipodi.sourceforge.net/DTD/sodipodi-0.dtd"
   xmlns="http://www.w3.org/2000/svg"
   xmlns:svg="http://www.w3.org/2000/svg">
  <defs
     id="defs32">
    <linearGradient
       id="swatch1"
       inkscape:swatch="solid">
      <stop
         style="stop-color:#000000;stop-opacity:1;"
         offset="0"
         id="stop1" />
    </linearGradient>
  </defs>
  <sodipodi:namedview
     id="namedview32"
     pagecolor="#ffffff"
     bordercolor="#999999"
     borderopacity="1"
     inkscape:showpageshadow="2"
     inkscape:pageopacity="0"
     inkscape:pagecheckerboard="0"
     inkscape:deskcolor="#d1d1d1"
     inkscape:zoom="6.9404968"
     inkscape:cx="338.16023"
     inkscape:cy="363.59068"
     inkscape:window-width="1920"
     inkscape:window-height="1145"
     inkscape:window-x="0"
     inkscape:window-y="0"
     inkscape:window-maximized="0"
     inkscape:current-layer="svg32">
    <inkscape:page
       x="0"
       y="0"
       width="415.41956"
       height="424.17712"
       id="page2"
       margin="0"
       bleed="0" />
  </sodipodi:namedview>
  <path
     d="m 309,198.91875 c 1.73,0.45 3.46,0.91 5.19,1.38 0.96,0.25 1.92,0.51 2.92,0.77 7.36,2.17 7.36,2.17 9.37,4.77 0.4,0.77 0.8,1.54 1.2,2.34 0.45,0.87 0.9,1.73 1.37,2.62 0.46,0.93 0.91,1.85 1.39,2.81 0.72,1.43 0.72,1.43 1.46,2.89 11.78,23.61 19.06,49.95 20.1,76.42 0.03,0.69 0.05,1.37 0.08,2.08 0.92,27.09 -4.26,53.43 -15.01,78.32 -1.2,2.44 -1.2,2.44 -1.07,4.6 1.98,1.65 3.96,3.3 6,5 0,8.91 0,17.82 0,27 -4.04,3.23 -7.94,6.04 -12.31,8.75 -0.63,0.41 -1.25,0.82 -1.9,1.25 -4.47,2.76 -8.49,4.14 -13.79,3 -3.14,-1.28 -5.94,-2.95 -8.81,-4.75 -0.75,-0.44 -1.5,-0.89 -2.27,-1.34 -3.71,-2.26 -6.69,-4.08 -8.92,-7.91 -0.34,-2.75 -0.34,-2.75 -0.29,-5.86 0.01,-1.11 0.02,-2.23 0.03,-3.38 0.02,-1.16 0.05,-2.32 0.07,-3.51 0.02,-1.76 0.02,-1.76 0.04,-3.56 0.04,-2.9 0.09,-5.79 0.15,-8.69 4.73,-4.35 9.56,-7.74 15.19,-10.81 0.7,-0.4 1.39,-0.79 2.11,-1.2 3.24,-1.79 6.06,-3.2 9.7,-3.99 19.52,-42.32 16.58,-86.41 3,-130 -0.09,0.65 -0.18,1.31 -0.27,1.98 -6.09,43.26 -23.51,82.35 -52.73,115.02 -0.78,0.88 -0.78,0.88 -1.57,1.77 -16.75,18.85 -16.75,18.85 -26.43,23.23 0.33,0.66 0.66,1.32 1,2 0.09,2.11 0.11,4.21 0.1,6.32 -0.01,1.26 -0.01,2.51 -0.01,3.81 -0.01,1.98 -0.01,1.98 -0.03,3.99 0,1.34 -0.01,2.68 -0.01,4.02 -0.01,3.29 -0.03,6.57 -0.05,9.86 -4.88,3.77 -9.78,7.29 -15.12,10.38 -0.59,0.35 -1.17,0.7 -1.77,1.07 -3.92,2.27 -6.62,3.34 -11.11,2.55 -3.38,-1.53 -6.52,-3.39 -9.69,-5.31 -0.85,-0.5 -1.71,-1 -2.59,-1.52 -3.7,-2.2 -6.64,-4.09 -9.72,-7.17 0,-9.24 0,-18.48 0,-28 4.79,-4 9.21,-7.21 14.5,-10.38 0.73,-0.46 1.47,-0.92 2.22,-1.4 3.54,-2.12 5.48,-3.25 9.68,-3.08 2.6,0.86 2.6,0.86 4.66,1.98 2.77,1.26 4.04,0.79 6.94,-0.12 2.21,-1.63 4.21,-3.24 6.25,-5.06 0.57,-0.5 1.14,-1 1.73,-1.51 1.14,-1 2.29,-2.01 3.43,-3.02 1.38,-1.23 2.79,-2.43 4.19,-3.64 4.94,-4.26 9.26,-8.74 13.4,-13.77 0.43,-0.5 0.85,-1.01 1.29,-1.53 12.28,-14.5 21.58,-30.34 29.71,-47.47 0.46,-0.92 0.92,-1.83 1.39,-2.77 13.93,-28.66 15.48,-59.99 15.61,-91.23 z"
     fill="#3672a4"
     id="path3" />
  <path
     d="m 224,0.91874695 c 3.32,1.66999995 3.32,1.66999995 6.56,3.74999995 0.57,0.36 1.13,0.72 1.71,1.09 3.83,2.47 7.37,5.0900001 10.73,8.1600001 0,3.3 0,6.6 0,10 0.96,-0.25 1.92,-0.51 2.9,-0.77 16.59,-4.32 33.03,-6.73 50.1,-8.23 0.53,-0.74 1.05,-1.48 1.59,-2.24 2.71,-3.1100001 5.37,-4.8500001 8.91,-6.9500001 1.12,-0.67 2.25,-1.35 3.41,-2.04 1.53,-0.88 1.53,-0.88 3.09,-1.77 0.67,-0.43 1.34,-0.86 2.03,-1.29999995 3.06,-1.09 4.85,-0.58 7.97,0.3 3.02,1.47999995 5.88,3.17999995 8.75,4.93999995 1.15,0.68 1.15,0.68 2.32,1.38 5.62,3.3700001 5.62,3.3700001 7.93,5.6800001 0.23,2.43 0.23,2.43 0.2,5.45 -0.01,1.61 -0.01,1.61 -0.02,3.26 -0.03,1.69 -0.03,1.69 -0.06,3.41 0,1.14 -0.01,2.28 -0.02,3.45 -0.07,8.57 -0.07,8.57 -3.53,12.01 -2.74,2.48 -5.8,4.37 -8.95,6.3 -0.95,0.62 -0.95,0.62 -1.92,1.25 -3.32,2.04 -5.22,2.87 -9.2,2.89 -4.18,-1.22 -7.51,-2.97 -11.19,-5.27 -0.65,-0.38 -1.3,-0.77 -1.97,-1.16 -3.9,-2.38 -6.82,-4.68 -9.34,-8.59 0,-0.99 0,-1.98 0,-3 -18.19,1.21 -35.35,3.29 -53,8 0,0.66 0,1.32 0,2 -2.98,2 -5.99,3.97 -9,5.94 -0.84,0.56 -1.68,1.13 -2.54,1.71 -6.54,4.23 -11.07,5.9 -18.96,4.91 -1.24,-0.28 -1.24,-0.28 -2.5,-0.56 -8,6 -15.73,12.12 -23,19 -1.4,1.3 -1.4,1.3 -2.83,2.63 -32.16,30.560003 -53.09,77.920003 -54.44,122.310003 -0.02,1.02 -0.02,1.02 -0.05,2.06 -0.02,0.72 -0.04,1.44 -0.06,2.19 -0.06,2.27 -0.12,4.54 -0.18,6.81 -0.05,1.55 -0.09,3.11 -0.13,4.66 -0.11,3.78 -0.21,7.56 -0.31,11.34 -5.23,-1.64 -10.15,-3.39 -15,-6 -0.74,-26.32 1.66,-50.89 10,-76 0.23,-0.71 0.47,-1.42 0.71,-2.14 13.48,-39.81 38.6,-71.970003 71.29,-97.860003 -0.33,-0.99 -0.66,-1.98 -1,-3 -0.31,-4.29 -0.32,-8.58 -0.38,-12.88 -0.05,-1.77 -0.05,-1.77 -0.11,-3.58 -0.09,-8.68 -0.09,-8.68 2.49,-12.52 0.99,-0.67 1.98,-1.33 3,-2.0200001 0.62,-0.43 1.25,-0.87 1.89,-1.31 2.12,-1.44 4.29,-2.75 6.49,-4.07 0.72,-0.46 1.45,-0.92 2.21,-1.4 4.83,-2.88999995 7.77,-3.92999995 13.41,-2.21999995 z"
     fill="#3571a3"
     id="path4" />
  <path
     d="m 223,132.91875 c 6.68,2.9 12.93,6.64 19.12,10.44 5.68,3.45 11.37,6.86 17.13,10.17 1.05,0.61 2.1,1.22 3.18,1.84 2.03,1.16 4.05,2.32 6.08,3.48 19.21,11.06 19.21,11.06 21.49,17.07 0.26,3.17 0.26,3.17 0.27,6.97 0.01,0.69 0.01,1.38 0.02,2.1 0.01,2.29 0.01,4.57 0.01,6.86 0,1.59 0.01,3.19 0.01,4.78 0.01,3.34 0.01,6.68 0.01,10.02 -0.01,4.28 0.01,8.55 0.03,12.82 0.01,3.29 0.02,6.59 0.01,9.88 0,1.57 0.01,3.15 0.02,4.72 0.01,2.21 0,4.42 -0.01,6.62 0,1.26 0,2.51 0,3.8 -0.56,5.15 -2.27,8.36 -5.96,11.95 -4.07,3.14 -8.53,5.66 -12.97,8.23 -0.94,0.55 -1.87,1.09 -2.84,1.66 -2.06,1.2 -4.12,2.4 -6.19,3.6 -5.68,3.31 -11.36,6.65 -17.03,9.98 -1.91,1.12 -3.83,2.24 -5.74,3.36 -0.61,0.35 -1.21,0.71 -1.83,1.07 -1.64,0.96 -3.29,1.92 -4.93,2.89 -1.83,1.07 -3.64,2.2 -5.41,3.38 -4.64,2.46 -9.38,2.08 -14.47,1.31 -4.07,-1.58 -7.59,-3.76 -11.25,-6.12 -2.09,-1.29 -4.18,-2.58 -6.28,-3.86 -1.06,-0.66 -2.12,-1.33 -3.22,-2.01 -5.29,-3.27 -10.68,-6.35 -16.06,-9.45 -25.6,-14.78 -25.6,-14.78 -28.19,-22.56 -0.11,-2.25 -0.16,-4.51 -0.18,-6.76 0,-0.69 -0.01,-1.37 -0.02,-2.07 -0.02,-2.26 -0.03,-4.52 -0.04,-6.78 0,-0.78 -0.01,-1.55 -0.01,-2.35 -0.02,-4.09 -0.04,-8.18 -0.05,-12.27 -0.01,-4.22 -0.04,-8.44 -0.08,-12.66 -0.03,-3.25 -0.03,-6.5 -0.04,-9.75 0,-1.56 -0.01,-3.11 -0.03,-4.67 -0.03,-2.18 -0.03,-4.36 -0.02,-6.54 -0.01,-1.24 -0.01,-2.48 -0.02,-3.75 0.82,-5.69 4.07,-9.55 8.52,-13.05 4.62,-3.17 9.54,-5.85 14.41,-8.6 1.76,-1.01 3.53,-2.02 5.3,-3.02 1.72,-0.99 3.44,-1.97 5.16,-2.95 3.79,-2.18 7.55,-4.4 11.29,-6.66 1.13,-0.67 2.26,-1.35 3.42,-2.05 2.47,-1.5 4.89,-3.04 7.31,-4.61 12.93,-8.32 12.93,-8.32 20.08,-6.46 z m -14.53,20.37 c -0.58,0.35 -1.17,0.7 -1.78,1.06 -1.88,1.13 -3.76,2.29 -5.63,3.45 -1.3,0.78 -2.6,1.57 -3.9,2.35 -2.56,1.54 -5.11,3.09 -7.66,4.65 -2.97,1.81 -5.96,3.57 -8.97,5.3 -0.77,0.44 -1.54,0.89 -2.34,1.35 -1.36,0.78 -2.72,1.56 -4.09,2.34 -4.17,2.42 -7.29,4.96 -11.1,8.13 0,20.13 0,40.26 0,61 4.48,4.51 4.48,4.51 9.46,7.84 0.85,0.5 1.71,1 2.59,1.51 0.91,0.53 1.82,1.05 2.76,1.59 0.95,0.55 1.9,1.1 2.88,1.67 2.03,1.18 4.07,2.36 6.1,3.54 3.32,1.91 6.62,3.84 9.92,5.78 4.21,2.46 8.41,4.91 12.62,7.37 0.85,0.5 1.71,0.99 2.59,1.51 3.79,2.17 6.73,2.98 11.08,2.19 3.51,-1.56 6.69,-3.58 9.94,-5.62 1.94,-1.2 3.89,-2.38 5.83,-3.57 1.02,-0.62 2.03,-1.25 3.07,-1.89 6.36,-3.87 12.84,-7.54 19.3,-11.25 9.03,-4.74 9.03,-4.74 14.86,-12.67 0.29,-2.75 0.29,-2.75 0.23,-5.78 0,-1.16 0,-2.32 0,-3.52 -0.01,-1.24 -0.02,-2.49 -0.03,-3.78 -0.01,-1.28 -0.01,-2.56 -0.01,-3.88 -0.01,-3.4 -0.03,-6.8 -0.05,-10.2 -0.02,-3.47 -0.03,-6.95 -0.04,-10.42 1.15,-12.23 1.15,-12.23 -2.29,-22.73 -2.52,-2.41 -4.7,-4.04 -7.7,-5.75 -0.95,-0.54 -1.89,-1.09 -2.87,-1.65 -1,-0.57 -2.01,-1.14 -3.05,-1.73 -2.16,-1.23 -4.31,-2.46 -6.46,-3.69 -1.11,-0.63 -2.21,-1.26 -3.35,-1.91 -3.37,-1.95 -6.7,-3.96 -10.02,-5.99 -1.06,-0.64 -2.13,-1.29 -3.23,-1.95 -2.04,-1.24 -4.08,-2.49 -6.11,-3.75 -1.4,-0.84 -1.4,-0.84 -2.83,-1.7 -0.81,-0.5 -1.62,-0.99 -2.46,-1.51 -6.63,-2.58 -11.39,-1.27 -17.26,2.31 z"
     id="path5"
     fill="#3470a2" />
  <path
     d="m 288.58984,80.680467 c 0.81,-0.01 1.63,-0.02 2.46,-0.03 23.09,-0.22 44.45,0.99 66.54,8.34 7.06,2.51 7.06,2.51 14.16,1.06 2.6,-1.58 5.1,-3.29 7.6,-5.02 3.23,-2.11 5.09,-3.09 9.02,-3.22 4.88,1.49 8.96,3.8 13.32,6.42 0.84,0.49 1.68,0.97 2.55,1.48 8.08,4.76 8.08,4.76 10.76,8.21 0.45,3.210003 0.45,3.210003 0.39,6.950003 0,0.66 -0.01,1.32 -0.02,2 -0.02,2.1 -0.07,4.2 -0.12,6.3 -0.02,1.43 -0.04,2.85 -0.05,4.28 -0.05,3.49 -0.12,6.98 -0.2,10.47 -4.9,4.39 -9.84,8.02 -15.5,11.37 -1.08,0.68 -1.08,0.68 -2.18,1.37 -4.59,2.72 -7.88,4.28 -13.32,3.26 -3.8,-1.84 -7.28,-4.07 -10.81,-6.38 -0.96,-0.6 -1.91,-1.2 -2.89,-1.82 -6.91,-4.41 -6.91,-4.41 -9.3,-6.8 0,-7.26 0,-14.52 0,-22 -4.45,-0.99 -4.45,-0.99 -9,-2 -2.11,-0.63 -4.21,-1.28 -6.31,-1.94 -15.08,-4.260003 -29.83,-5.340003 -45.44,-5.370003 -0.73,-0.01 -1.47,-0.01 -2.23,-0.02 -46.9,-0.12 -86.83,19.260003 -127.53,40.520003 -2.49,1.29 -4.98,2.57 -7.49,3.81 0.52,-7.46 2.53,-16.29 7.73,-21.86 2.34,-1.61 4.73,-2.87 7.27,-4.14 1.13,-0.64 2.25,-1.28 3.41,-1.93 31.89,-17.870003 70.07,-32.940003 107.18,-33.310003 z"
     fill="#3470a3"
     id="path6" />
  <path
     d="m 54,281.91875 c 3.76,1.63 7.23,3.65 10.75,5.75 0.94,0.54 1.89,1.08 2.86,1.63 8.13,4.74 8.13,4.74 10.39,8.62 0.34,2.29 0.34,2.29 0.29,4.77 -0.01,1.33 -0.01,1.33 -0.03,2.69 -0.02,0.92 -0.05,1.84 -0.07,2.79 -0.02,1.4 -0.02,1.4 -0.04,2.84 -0.04,2.3 -0.09,4.61 -0.15,6.91 3.33,1.03 6.66,2.02 10,3 1.1,0.32 2.2,0.65 3.34,0.98 16.86,4.76 33.42,6.59 50.91,6.46 0.9,-0.01 1.79,-0.01 2.72,-0.02 40.01,-0.27 75.03,-13.98 109.32,-33.85 3.97,-2.3 7.96,-4.56 11.96,-6.82 0.65,-0.37 1.3,-0.74 1.97,-1.12 2.58,-1.46 4.96,-2.69 7.78,-3.63 -2.73,16.9 -2.73,16.9 -8.04,21.94 -36.87,25.71 -82.33,40.59 -127.21,40.37 -0.81,0 -1.62,0 -2.46,-0.01 -21.88,-0.1 -43.55,-2.96 -63.97,-11.41 -3,-1.15 -4.28,-0.91 -7.32,0.11 -2.98,1.65 -5.86,3.38 -8.74,5.21 -4,2.41 -6.62,3.67 -11.26,2.79 -3.53,-1.67 -6.81,-3.68 -10.12,-5.75 -0.9,-0.54 -1.79,-1.08 -2.71,-1.63 -4.2,-2.58 -7.77,-5.02 -11.17,-8.62 -0.15,-4.56 -0.23,-9.12 -0.31,-13.69 -0.04,-1.29 -0.09,-2.58 -0.13,-3.92 -0.02,-1.24 -0.03,-2.49 -0.05,-3.78 -0.02,-1.14 -0.05,-2.29 -0.08,-3.47 0.75,-4.11 2.41,-5.5 5.57,-8.14 2.1,-1.44 4.25,-2.81 6.44,-4.12 1.64,-1 1.64,-1 3.31,-2.01 1.07,-0.62 2.14,-1.24 3.25,-1.87 0.98,-0.57 1.96,-1.15 2.97,-1.74 3.84,-1.6 5.89,-1.86 10.03,-1.26 z"
     fill="#3471a4"
     id="path7" />
  <path
     d="m 57.0022,83.700237 c 1.96,1.04 3.78,2.17 5.62,3.41 0.93,0.58 0.93,0.58 1.87,1.17 1.86,1.18 3.69,2.4 5.51,3.64 0.65,0.44 1.31,0.89 1.98,1.34 4.89,3.4 4.89,3.4 6.02,5.66 0.32,4.410003 0.32,8.830003 0.37,13.250003 0.06,1.84 0.06,1.84 0.12,3.72 0.1,10.16 0.1,10.16 -2.62,13.65 -2.95,2.44 -5.83,4.41 -9.18,6.25 -1.07,0.6 -2.14,1.19 -3.24,1.81 -0.81,0.43 -1.62,0.87 -2.45,1.32 3.85,35.82 21.28,71.18 45,98 0.45,0.51 0.9,1.03 1.37,1.56 21.87,24.62 48.58,41.35 77.63,56.44 -2.97,2.37 -5.95,4.12 -9.38,5.75 -0.91,0.45 -1.83,0.9 -2.77,1.36 -4.91,1.53 -8.39,0.24 -12.81,-2.01 -1.48,-0.81 -2.95,-1.64 -4.42,-2.48 -0.78,-0.44 -1.57,-0.89 -2.38,-1.34 -12.46,-7.16 -23.89,-15.37 -34.65,-24.88 -1.15,-1.01 -2.3,-2.01 -3.46,-3.01 -16.95,-14.66 -31.75,-31.01 -43.13,-50.39 -0.34,-0.57 -0.68,-1.13 -1.03,-1.71 -13.66,-22.78 -22.37,-47.97 -25.97,-74.29 -0.49,-0.28 -0.98,-0.55 -1.48,-0.84 -2.24,-1.27 -4.48,-2.56 -6.71,-3.85 -0.77,-0.43 -1.54,-0.87 -2.33,-1.32 -0.75,-0.43 -1.5,-0.87 -2.28,-1.32 -0.68,-0.39 -1.37,-0.78 -2.07,-1.19 -2.13,-1.48 -2.13,-1.48 -7.13,-6.48 0,-9.57 0,-19.14 0,-29.000003 4.73,-3.95 9.1,-7.17 14.31,-10.31 0.71,-0.46 1.42,-0.91 2.15,-1.38 5.72,-3.45 11.08,-5.05 17.54,-2.53 z"
     fill="#3470a1"
     id="path8" />
  <path
     d="m 275.81177,123.77495 c 2.2,1.12 4.35,2.3 6.5,3.52 0.79,0.44 1.58,0.89 2.4,1.35 8.1,4.62 15.77,9.76 23.29,15.27 0.59,0.43 1.17,0.86 1.78,1.3 14.27,10.54 27.39,22.63 38.22,36.7 0.7,0.81 1.39,1.62 2.11,2.45 21.38,24.79 35.07,55.86 41.51,87.7 0.25,1.23 0.51,2.45 0.77,3.71 0.22,1.09 0.43,2.18 0.65,3.3 1.91,5.68 6.49,7.93 11.46,10.84 7.71,4.53 7.71,4.53 10.5,8 0.45,3.03 0.45,3.03 0.39,6.52 -0.01,1.25 -0.03,2.5 -0.04,3.79 -0.05,1.95 -0.05,1.95 -0.1,3.94 -0.02,1.32 -0.04,2.64 -0.06,4 -0.14,9.86 -0.14,9.86 -3.6,13.31 -2.87,2.6 -6.08,4.63 -9.34,6.69 -0.67,0.45 -1.33,0.9 -2.02,1.36 -4.86,3.08 -9.38,5.04 -15.23,4.39 -3.7,-1.3 -6.95,-3.13 -10.31,-5.12 -0.88,-0.49 -1.76,-0.98 -2.67,-1.48 -4.61,-2.63 -8.07,-4.85 -11.02,-9.4 -0.81,-4.47 -0.6,-8.96 -0.56,-13.5 -0.04,-1.83 -0.04,-1.83 -0.08,-3.7 0.02,-8.91 0.02,-8.91 2.81,-12.9 0.93,-0.63 1.87,-1.25 2.83,-1.9 0.95,-0.66 1.91,-1.33 2.89,-2.02 0.97,-0.59 1.93,-1.18 2.92,-1.79 0.98,-0.6 1.95,-1.21 2.96,-1.83 0.73,-0.45 1.47,-0.9 2.23,-1.36 0.31,-6.55 -0.77,-12.02 -2.56,-18.31 -0.28,-0.97 -0.55,-1.93 -0.83,-2.93 -8.75,-30.29 -22.87,-57.72 -44.61,-80.76 -1.15,-1.35 -2.3,-2.7 -3.44,-4.06 -4.16,-4.73 -8.74,-8.89 -13.56,-12.94 -0.6,-0.5 -1.19,-1 -1.81,-1.52 -14.2,-11.83 -29.82,-21.04 -45.86,-30.13 -0.67,-0.37 -1.33,-0.75 -2.01,-1.13 -1.67,-0.95 -3.36,-1.87 -5.04,-2.8 -2.28,-1.42 -2.28,-1.42 -3.28,-3.42 2.39,-1.2 4.78,-2.38 7.19,-3.56 0.67,-0.34 1.34,-0.68 2.04,-1.04 4.9,-2.36 7.5,-2.94 12.58,-0.54 z"
     fill="#346fa1"
     id="path9" />
  <path
     d="m 225,169.91875 c 3.82,1.78 7.36,3.89 10.94,6.12 1.38,0.84 1.38,0.84 2.8,1.69 15.5,9.43 15.5,9.43 20.26,14.19 0.24,3.01 0.35,5.93 0.37,8.95 0.01,0.9 0.02,1.79 0.03,2.71 0.01,1.89 0.02,3.79 0.03,5.68 0.01,2.89 0.06,5.77 0.11,8.66 0.01,1.84 0.01,3.68 0.02,5.52 0.02,0.86 0.04,1.71 0.06,2.6 -0.03,4.09 -0.24,6.97 -2.81,10.25 -2.67,2.5 -5.11,4.33 -8.27,6.14 -1.03,0.59 -2.06,1.19 -3.12,1.8 -1.07,0.6 -2.13,1.2 -3.23,1.81 -1.06,0.61 -2.11,1.22 -3.2,1.84 -2.98,1.71 -5.98,3.38 -8.99,5.04 -0.77,0.44 -1.54,0.87 -2.33,1.32 -4.08,2.21 -7.05,3.49 -11.67,2.68 -2.99,-1.27 -5.76,-2.85 -8.56,-4.5 -0.79,-0.45 -1.58,-0.91 -2.39,-1.37 -2.36,-1.36 -4.71,-2.74 -7.05,-4.13 -0.67,-0.39 -1.33,-0.78 -2.02,-1.18 -14.22,-8.3 -14.22,-8.3 -16.98,-13.82 -0.29,-5.51 -0.31,-11.02 -0.35,-16.54 -0.02,-1.84 -0.04,-3.69 -0.08,-5.53 -0.06,-2.66 -0.08,-5.32 -0.09,-7.98 -0.03,-0.82 -0.05,-1.64 -0.07,-2.49 0.01,-4.33 0.17,-5.94 2.99,-9.42 3.73,-2.93 7.58,-5.43 11.65,-7.86 1.46,-0.88 2.91,-1.78 4.37,-2.68 2.72,-1.69 5.46,-3.35 8.2,-5 0.89,-0.55 1.77,-1.11 2.68,-1.68 5.85,-3.45 10.1,-5.08 16.7,-2.82 z"
     fill="#3170a6"
     id="path10" />
  <path
     d="m 23,197.91875 c 2.61,1.18 4.84,2.33 7.25,3.81 0.61,0.36 1.22,0.72 1.85,1.08 3,1.78 5.51,3.59 7.9,6.11 0.08,2.9 0.14,5.79 0.19,8.69 0.02,0.81 0.05,1.63 0.07,2.47 0.06,4.77 0.01,8.1 -3.26,11.84 -2.25,1.62 -4.35,2.98 -6.75,4.31 -0.6,0.36 -1.19,0.72 -1.8,1.09 -4.34,2.46 -7.51,3.31 -12.45,2.6 -2.81,-1.22 -5.31,-2.77 -7.88,-4.44 -0.67,-0.42 -1.35,-0.84 -2.04,-1.27 -4.81,-3.02 -4.81,-3.02 -6.08,-4.29 0,-7.26 0,-14.52 0,-22 15.96,-10.64 15.96,-10.64 23,-10 z"
     fill="#3770a0"
     id="path11" />
  <path
     d="m 49,94.918747 c 3.75,1.5 6.78,2.94 10.19,5 0.86,0.520003 1.72,1.030003 2.6,1.560003 2.21,1.44 2.21,1.44 4.21,3.44 0.15,2.91 0.19,5.72 0.12,8.62 0,0.81 -0.01,1.61 -0.02,2.43 -0.03,1.99 -0.06,3.97 -0.1,5.95 -2.22,1.37 -4.45,2.72 -6.69,4.06 -0.94,0.59 -0.94,0.59 -1.89,1.18 -2.72,1.61 -4.78,2.77 -7.98,2.73 -5.15,-2.05 -9.71,-5.11 -14.44,-7.97 0,-5.94 0,-11.88 0,-18 4.62,-2.97 9.24,-5.940003 14,-9.000003 z"
     id="path12"
     style="fill:#ffffff;fill-opacity:1" />
  <path
     d="m 387,294.91875 c 6.18,2.06 10.51,4.59 16,8 0,6.27 0,12.54 0,19 -4.62,2.64 -9.24,5.28 -14,8 -6.6,-2.2 -10.43,-4.94 -16,-9 0,-5.94 0,-11.88 0,-18 4.62,-2.64 9.24,-5.28 14,-8 z"
     id="path13"
     style="fill:#ffffff;fill-opacity:1" />
  <path
     d="m 218,379.91875 c 6.14,2.05 9.77,4.35 15,8 0,5.28 0,10.56 0,16 -4.29,2.64 -8.58,5.28 -13,8 -5.47,-2.19 -9.98,-4.92 -15,-8 0,-5.28 0,-10.56 0,-16 4.29,-2.64 8.58,-5.28 13,-8 z"
     id="path14"
     style="fill:#ffffff;fill-opacity:1" />
  <path
     d="m 320.125,12.793747 c 3.84,1.5 6.63,3.59 9.88,6.12 0,4.29 0,8.59 0,13 -2.98,1.98 -5.95,3.97 -9,6 -5.64,-1.12 -8.29,-2.88 -13,-6 0,-4.62 0,-9.24 0,-14 7.98,-4.95 7.98,-4.95 12.12,-5.12 z"
     id="path15"
     style="fill:#ffffff;fill-opacity:1" />
  <path
     d="m 20.0625,209.98125 c 3,0.96 5.34,2.18 7.94,3.94 0,3.63 0,7.26 0,11 -3.48,2.12 -5.51,3.01 -9.63,2.87 -3.37,-0.87 -3.37,-0.87 -7.37,-3.87 0,-3.3 0,-6.6 0,-10 5.11,-4.02 5.11,-4.02 9.06,-3.94 z"
     id="path16"
     style="fill:#ffffff;fill-opacity:1" />
  <path
     d="m 91,219.91875 c 0.66,0 1.32,0 2,0 0.48,0.69 0.97,1.38 1.47,2.09 4.51,6.32 9.25,12.22 14.53,17.91 -0.66,0.66 -1.32,1.32 -2,2 -2.11,-2.58 -4.21,-5.17 -6.31,-7.75 -0.89,-1.09 -0.89,-1.09 -1.81,-2.21 -0.86,-1.06 -0.86,-1.06 -1.74,-2.15 -0.8,-0.97 -0.8,-0.97 -1.61,-1.97 -0.76,-0.95 -0.76,-0.95 -1.53,-1.92 -0.56,-0.7 -1.12,-1.4 -1.7,-2.12 -1.3,-1.88 -1.3,-1.88 -1.3,-3.88 z"
     fill="#437398"
     id="path22" />
  <path
     d="m 130,127.91875 c 0.66,0 1.32,0 2,0 -0.18,0.53 -0.36,1.07 -0.55,1.62 -1.94,5.76 -3.73,11.55 -5.45,17.38 -0.66,-0.33 -1.32,-0.66 -2,-1 1.59,-6.23 3.28,-12.16 6,-18 z"
     fill="#47759b"
     id="path25" />
  <path
     d="m 128,203.91875 c 0.33,0 0.66,0 1,0 0,7.26 0,14.52 0,22 -1.98,-0.66 -3.96,-1.32 -6,-2 0,-0.33 0,-0.66 0,-1 1.65,0 3.3,0 5,0 0,-6.27 0,-12.54 0,-19 z"
     fill="#497598"
     id="path26" />
  <path
     d="m 262,340.91875 c 0,3.91 -1.51,5.12 -4,8 -0.99,-0.33 -1.98,-0.66 -3,-1 2.31,-2.31 4.62,-4.62 7,-7 z"
     fill="#4d7ba0"
     id="path31" />
  <path
     d="m 171,136.91875 c -2.69,2.25 -4.65,3.88 -8,5 0,-1.32 0,-2.64 0,-4 2.93,-0.98 4.96,-1.08 8,-1 z"
     fill="#4c7594"
     id="path32" />
</svg>
